<svg width="626" height="1168" viewBox="0 0 626 1168" fill="none" xmlns="http://www.w3.org/2000/svg">
<g clip-path="url(#clip0)">
<rect width="626" height="1168" fill="white"/>
<path fill-rule="evenodd" clip-rule="evenodd" d="M102.13 373.925C62.2937 321.049 14.3017 277.608 -28.4644 228.127C-47.6395 205.942 -67.0037 182.668 -81.6146 155.603C-89.4738 141.049 -97.8191 122.729 -95.6517 104.639C-89.4333 52.7184 -15.8991 57.4078 13.809 54.3667C57.9524 49.8999 108.665 45.4001 147.698 17.4042C173.267 -0.932835 182.854 -28.0139 178.081 -62.9408C172.956 -100.406 184.414 -127.602 210.49 -148.502C243.182 -174.685 284.449 -185.358 322.408 -192.94C368.141 -202.031 414.453 -206.061 460.78 -204.98C505.835 -203.926 549.485 -213.139 594.243 -219.131C653.585 -227.067 714.831 -230.982 773.504 -214.714C824.589 -200.547 870.731 -169.328 905.32 -121.051C941.449 -70.6629 959.335 -7.1797 988.672 48.5648C1006.97 83.3351 1032.48 129.33 1066.68 142.846C1078.08 147.354 1098.86 141.272 1089.75 163.449C1084.55 176.133 1074.8 187.258 1067.11 197.626C1054.67 214.381 1041.82 230.674 1029.18 247.198C1002.22 282.421 973.358 318.395 953.157 360.104C927.703 412.618 965.54 453.034 960.928 506.281C958.45 534.936 942.124 557.806 924.853 575.772C913.679 587.409 901.451 597.488 888.967 606.892C875.93 616.715 860.502 624.199 849.132 636.898C832.927 654.972 839.963 676.366 843.001 699.731C848.349 740.791 849.523 782.5 846.498 823.911C842.798 874.67 834.122 926.879 815.845 973.006C808.735 990.964 799.728 1010 786.353 1022.04C772.978 1034.08 759.143 1033.26 743.817 1029.63C698.356 1018.92 652.991 993.988 609.867 970.36C555.893 940.782 502.979 907.726 452.448 870.121C417.568 844.16 382.573 816.115 353.392 780.916C344.905 770.672 336.83 759.703 330.301 747.456C325.818 739.058 323.414 728.221 316.919 721.908C296.596 702.203 255.794 708.087 231.96 709.233C184.394 711.516 137.577 722.37 90.0708 725.007C64.1438 726.449 23.5383 730.075 4.49817 703.134C-13.4077 677.809 2.81019 637.92 13.5118 613.518C34.5438 565.537 62.8001 522.789 88.1262 478.187C98.5375 459.833 109.948 440.631 116.693 419.673C122.689 400.998 112.338 387.482 102.13 373.925Z" stroke="#5ACEF2" stroke-width="5"/>
<path fill-rule="evenodd" clip-rule="evenodd" d="M111.927 374.79C80.2195 328.26 41.9944 286.956 10.057 239.669C-8.63723 211.977 -40.831 165.422 -26.3735 126.381C-10.5128 83.4807 44.7739 82.3122 76.7316 78.8558C114.768 74.7411 159.435 69.1203 191.987 42.3331C202.282 33.8649 211.052 22.6562 214.769 7.89246C218.75 -7.90826 214.398 -21.7339 213.832 -37.551C212.644 -70.7325 228.876 -97.3716 250.357 -115.666C280.715 -141.531 318.677 -153.76 354.534 -162.286C395.158 -171.902 436.457 -176.643 477.838 -176.441C517.385 -176.276 556.514 -177.346 596.102 -178.581C647.874 -180.227 700.374 -177.568 750.595 -160.788C800.066 -144.247 845.044 -113.246 880.375 -67.6465C914.842 -23.1494 938.097 31.2396 958.464 86.6409C970.021 118.086 989.545 165.077 1017.11 180.96C1029.37 188.029 1041.4 187.543 1028.36 205.928C1011.95 229.078 989.828 247.652 970.817 267.452C943.393 296.025 915.281 325.158 892.262 359.129C877.561 380.822 871.011 401.873 872.023 429.961C872.805 451.358 876.354 472.532 874.559 494.011C870.356 544.426 837.819 578.998 809.052 611.192C790.547 631.897 773.647 647.69 764.121 677.143C752.855 711.954 748.125 749.827 740.596 785.971C732.325 825.662 722.772 866.949 704.719 901.909C688.649 933.033 669.105 946.99 639.853 938.604C594.227 925.536 549.255 893.342 508.75 863.559C467.523 833.258 427.004 799.187 392.84 757.538C374.396 735.046 361.807 708.638 345.427 684.476C324.823 654.142 278.212 665.63 250.512 668.198C204.528 672.461 59.8386 704.358 73.1897 601.045C78.7622 557.922 100.708 518.124 116.758 480.071C123.41 464.278 133.037 445.325 134.541 427.229C136.181 407.519 121.46 388.797 111.927 374.79Z" stroke="#FF8062" stroke-width="5"/>
<path fill-rule="evenodd" clip-rule="evenodd" d="M128.669 378.741C104.438 336.576 75.4396 296.74 54.6483 251.199C41.1606 221.706 27.9157 182.298 45.3148 151.092C64.9529 115.876 108.255 107.667 140.073 103.18C172.854 98.5603 211.989 94.674 238.782 67.9717C247.306 59.4661 254.333 47.9964 255.642 34.2623C256.903 21.0882 253.342 7.91413 254.522 -5.49878C257.166 -35.6181 272.13 -60.4349 291.424 -78.4341C348.498 -131.682 433.443 -143.523 502.304 -144.914C536.772 -145.606 572.245 -141.975 606.935 -139.373C651.95 -135.997 697.033 -128.751 739.964 -111.287C831.242 -74.169 892.422 8.15289 935.151 110.59C948.598 142.834 958.889 177.72 979.964 203.632C990.828 217.012 988.454 226.621 977.347 238.824C959.982 257.893 938.799 272.467 919.525 288.383C892.112 311.018 864.111 333.99 839.867 361.104C823.156 379.795 811.293 397.802 807.692 425.83C805.123 445.814 805.723 466.176 804.179 486.283C801.238 524.48 791.17 562.388 773.346 594.072C759.184 619.185 742.324 642.01 724.898 663.772C702.246 692.104 683.086 720.89 665.883 754.517C643.075 799.029 611.028 881.136 557.307 859.407C498.056 835.43 442.52 774.508 404.505 715.48C391.739 695.661 381.259 671.355 364.042 656.74C338.267 634.896 312.115 635.661 281.457 635.752C235.558 635.875 135.682 648.037 134.603 564.118C134.178 530.869 145.967 499.433 151.611 467.452C157.977 431.635 145.218 407.477 128.669 378.741Z" stroke="#F1B170" stroke-width="5"/>
<path fill-rule="evenodd" clip-rule="evenodd" d="M146.716 382.501C122.749 327.545 69.0045 237.242 109.881 176.132C131.473 143.837 169.665 131.701 201.702 124.468C227.484 118.618 258.577 116.421 278.057 91.6219C292.376 73.3885 286.02 46.853 291.505 24.0283C298.314 -4.26802 313.941 -27.4218 333.145 -44.8242C386.808 -93.4604 461.423 -108.386 525.977 -111.562C593.02 -114.853 666.893 -99.4587 729.982 -69.8458C808.646 -32.91 867.579 37.0286 908.793 125.596C916.397 141.945 923.307 158.722 930.608 175.268C935.513 186.368 942.787 197.106 946.654 208.781C953.091 228.249 945.506 244.162 933.347 256.85C915.858 275.116 894.373 288.116 874.434 301.824C847.167 320.584 819.293 339.007 793.929 361.017C776.885 375.828 759.044 391.782 752.944 417.478C748.781 435.004 747.917 453.567 748.066 471.718C748.39 510.636 746.716 542.109 731.831 577.753C707.338 636.271 669.673 688.889 629.882 732.671C598.655 767.031 549.242 820.407 503.743 797.434C462.921 776.864 439.041 727.627 412.145 687.82C399.068 668.467 384.379 650.793 367.119 637.028C345.358 619.675 324.872 612.393 299.09 609.554C255.696 604.774 190.265 603.531 176.851 540.011C171.898 516.569 174.725 492.288 172.127 468.542C168.733 437.143 158.808 410.221 146.716 382.501Z" stroke="#5BE7C3" stroke-width="5"/>
<path fill-rule="evenodd" clip-rule="evenodd" d="M171.638 384.536C154.571 324.404 132.15 248.621 173.371 195.178C193.338 169.289 221.423 154.816 248.604 144C268.072 136.249 298.983 133.968 310.918 110.137C319.684 92.6002 320.898 68.4075 328.828 49.6184C339.725 23.7865 356.232 2.50967 375.599 -14.146C426.051 -57.5479 491.763 -74.3189 551.69 -79.1212C681.9 -89.5413 814.39 -6.55124 884.067 129.989C904.843 170.689 931.661 214.009 898.086 255.59C861.43 300.952 806.211 322.205 762.461 354.437C745.745 366.743 724.443 381.537 715.117 403.819C709.507 417.213 709.122 434.017 708.866 448.761C708.192 486.315 705.636 520.087 693.263 555.128C674.152 609.28 643.68 659.239 609.148 700.161C579.033 735.845 536.086 777.781 492.35 752.056C458.816 732.286 437.548 690.326 411.493 659.395C382.497 624.947 346.637 601.735 307.257 590.392C268.949 579.387 226.932 571.965 206.743 525.211C199.818 509.173 192.582 488.407 189.986 470.656C185.795 441.388 179.659 412.586 171.638 384.536Z" stroke="#FF8062" stroke-width="5"/>
<path fill-rule="evenodd" clip-rule="evenodd" d="M199.426 384.959C191.531 324.239 190.653 260.925 227.338 213.068C244.459 190.742 266.101 174.88 287.986 160.509C304.088 149.935 320.716 141.016 332.741 123.68C343.883 107.629 352.352 88.9925 363.109 72.5215C377.299 50.6939 394.277 31.7985 413.392 16.5614C461.306 -21.5607 519.592 -39.3906 575.354 -45.5754C602.348 -48.5814 631.629 -50.1461 658.441 -41.9518C684.334 -34.0457 709.938 -21.5442 733.746 -6.96741C784.359 23.9898 828.224 69.3261 860.023 126.645C881.827 165.961 893.616 204.19 865.381 244.075C833.549 289.032 783.637 313.838 742.499 343.016C714.284 363.028 682.661 382.645 677.39 425.173C673.193 459.013 669.785 491.131 658.926 523.118C642.766 570.299 619.005 613.038 589.053 648.8C561.661 681.379 527.008 709.026 487.827 691.624C456.784 677.813 432.699 646.872 405.577 624.752C375.351 600.045 342.142 586.424 307.172 575.471C275.744 565.588 246.152 550.402 225.84 518.16C221.683 511.572 217.316 504.399 214.111 497.028C210.021 487.623 210.339 478.3 209.536 467.759C207.444 439.939 202.996 412.441 199.426 384.959Z" stroke="#F1B170" stroke-width="5"/>
<path fill-rule="evenodd" clip-rule="evenodd" d="M230.066 379.996C230.74 322.321 242.106 267.813 273.236 222.866C286.544 203.638 302.436 187.801 317.08 170.181C328.871 155.977 340.014 142.779 353.572 131.074C385.733 103.358 411.871 67.4927 446.05 42.8124C491.675 9.81747 543.937 -8.42045 595.795 -15.7123C621.117 -19.2758 647.275 -20.5214 672.893 -16.496C694.897 -13.0398 715.969 -0.905871 735.517 11.5085C773.83 35.8258 811.03 70.388 835.907 114.115C890.753 210.518 782.619 280.607 727.119 321.653C701.595 340.534 662.593 362.402 652.138 399.802C644.664 426.519 640.111 453.691 630.486 479.583C604.631 549.12 552.146 630.906 482.204 620.018C452.276 615.366 424.998 596.468 397.059 583.781C368.29 570.715 338.597 563.432 308.696 555.439C280.75 547.974 258.477 537.349 240.427 508.866C231.799 495.264 232.562 478.981 231.793 462.294C230.538 434.883 229.762 407.316 230.066 379.996Z" stroke="#5BE7C3" stroke-width="5"/>
<path fill-rule="evenodd" clip-rule="evenodd" d="M257.966 372.609C269.202 285.553 310.934 190.513 372.297 139.956C444.477 80.484 522.674 30.404 608.914 16.0073C648.897 9.33158 692.696 6.04723 730.423 27.877C759.136 44.4797 792.488 69.2975 808.29 104.199C846.949 189.567 760.959 257.525 711.968 297.02C685.592 318.281 652.017 339 632.137 370.049C620.603 388.051 614.715 411.864 605.402 431.636C577.183 491.553 530.73 539.879 472.866 548.522C446.111 552.515 419.161 547.576 392.609 543.649C365.429 539.633 337.912 537.451 310.9 531.846C289.339 527.368 263.928 519.787 255.987 491.627C245.973 456.141 253.38 408.16 257.966 372.609Z" stroke="#5ACEF2" stroke-width="5"/>
<path fill-rule="evenodd" clip-rule="evenodd" d="M285.324 358.624C301.712 276.777 336.414 196.94 394.752 148.079C425.688 122.17 461.601 104.285 496.08 86.614C535.163 66.5868 575.998 51.0413 617.704 43.3303C669.632 33.7245 753.734 25.0661 780.865 97.2742C807.792 168.947 739.747 232.381 699.507 268.531C673.709 291.688 646.098 312.943 621.449 338.259C608.083 351.984 597.787 367.843 586.476 383.94C555.215 428.542 510.649 463.851 465.225 482.7C421.199 500.973 366.736 509.063 320.263 503.024C300.211 500.429 285.879 491.672 279.814 466.776C271.411 432.167 278.55 392.434 285.324 358.624Z" stroke="#F1B170" stroke-width="5"/>
<path fill-rule="evenodd" clip-rule="evenodd" d="M312.51 336.58C328.79 264.517 363.904 198.697 415.124 155.446C472.538 106.961 546.469 80.0191 614.42 66.3186C650.539 59.0417 728.81 39.3114 747.221 95.7789C765.631 152.246 712.409 207.893 681.777 238.527C644.6 275.649 604.517 311.492 564.481 344.8C529.697 373.76 492.58 403.368 454.903 425.732C433.654 438.419 411.518 448.777 388.759 456.685C371.906 462.493 350.476 471.157 332.807 466.833C288.241 455.914 304.724 371.036 312.51 336.58Z" stroke="#FF8062" stroke-width="5"/>
<path fill-rule="evenodd" clip-rule="evenodd" d="M346.067 315C381.787 178.721 494.959 111.696 603.925 88.3337C629.246 82.9108 700.227 63.3588 714.381 104.989C728.096 145.352 684.477 193.22 664.056 215.899C600.777 286.174 522.598 338.28 448.516 389.9C425.392 406.013 383.687 440.978 355.003 424.849C323.86 407.305 338.667 343.259 346.067 315Z" stroke="#5ACEF2" stroke-width="5"/>
<path fill-rule="evenodd" clip-rule="evenodd" d="M382.655 288.77C413.719 188.41 504.071 130.85 587.141 111.875C607.487 107.232 659.161 92.7756 674.572 120.782C688.832 146.689 654.8 184.228 642.067 199.145C613.722 232.363 580.129 259.727 546.942 286.029C516.256 310.364 485.239 335.307 452.952 355.888C435.945 366.722 404.05 389.838 384.724 373.11C363.918 355.114 375.758 311.055 382.655 288.77Z" stroke="#5ACEF2" stroke-width="5"/>
<path fill-rule="evenodd" clip-rule="evenodd" d="M422.974 259.449C446.651 193.91 510.063 151.351 565.999 137.208C581.051 133.411 613.582 123.56 626.279 141.063C637.968 157.182 619.129 180.813 610.768 191.727C573.711 240.101 519.445 283.31 469.725 309.849C457.224 316.521 434.752 329.617 421.892 316.15C408.701 302.321 417.536 274.497 422.974 259.449Z" stroke="#5BE7C3" stroke-width="5"/>
<path fill-rule="evenodd" clip-rule="evenodd" d="M465.747 231.918C479.088 199.374 513.957 174.821 542.842 167.005C563.169 161.509 587.604 166.256 569.888 194.585C552.289 222.697 519.634 248.373 491.957 259.756C470.84 268.437 454.29 259.873 465.747 231.918Z" stroke="#F1B170" stroke-width="5"/>
</g>
<defs>
<clipPath id="clip0">
<rect width="626" height="1168" fill="white"/>
</clipPath>
</defs>
</svg>
